<?xml version="1.0" encoding="UTF-8" standalone="no"?>
<svg
   xmlns:dc="http://purl.org/dc/elements/1.1/"
   xmlns:cc="http://creativecommons.org/ns#"
   xmlns:rdf="http://www.w3.org/1999/02/22-rdf-syntax-ns#"
   xmlns:svg="http://www.w3.org/2000/svg"
   xmlns="http://www.w3.org/2000/svg"
   xmlns:sodipodi="http://sodipodi.sourceforge.net/DTD/sodipodi-0.dtd"
   xmlns:inkscape="http://www.inkscape.org/namespaces/inkscape"
   aria-hidden="true"
   focusable="false"
   data-prefix="fas"
   data-icon="cloud-sun"
   class="svg-inline--fa fa-cloud-sun fa-w-20"
   role="img"
   viewBox="0 0 128 128"
   version="1.1"
   id="svg4"
   sodipodi:docname="cloud-sun-solid.svg"
   width="128"
   height="128"
   inkscape:version="1.0.2 (e86c870879, 2021-01-15)"
   inkscape:export-filename="/home/emeric/Dev/Arduino/projects/esp32-environmental-sensors/WeatherStation/doc/cloud-sun-solid.png"
   inkscape:export-xdpi="96"
   inkscape:export-ydpi="96">
  <metadata
     id="metadata10">
    <rdf:RDF>
      <cc:Work
         rdf:about="">
        <dc:format>image/svg+xml</dc:format>
        <dc:type
           rdf:resource="http://purl.org/dc/dcmitype/StillImage" />
        <dc:title />
      </cc:Work>
    </rdf:RDF>
  </metadata>
  <defs
     id="defs8" />
  <sodipodi:namedview
     pagecolor="#ffffff"
     bordercolor="#666666"
     borderopacity="1"
     objecttolerance="10"
     gridtolerance="10"
     guidetolerance="10"
     inkscape:pageopacity="0"
     inkscape:pageshadow="2"
     inkscape:window-width="1720"
     inkscape:window-height="1355"
     id="namedview6"
     showgrid="false"
     inkscape:snap-page="true"
     inkscape:snap-bbox="true"
     inkscape:bbox-paths="true"
     inkscape:bbox-nodes="true"
     inkscape:zoom="3.0161302"
     inkscape:cx="72.825847"
     inkscape:cy="131.97071"
     inkscape:window-x="1720"
     inkscape:window-y="0"
     inkscape:window-maximized="0"
     inkscape:current-layer="svg4"
     inkscape:document-rotation="0" />
  <path
     fill="currentColor"
     d="m 115.03999,78.278007 c 0.04,-0.38 0.16001,-0.740003 0.16001,-1.120003 0,-7.059999 -5.73999,-12.800001 -12.8,-12.800001 -2.519998,0 -4.839996,0.760004 -6.820001,1.999998 -3.519992,-7.76 -11.3,-13.199998 -20.380001,-13.199998 -12.359994,0 -22.399997,10.019998 -22.399997,22.399996 0,0.600008 0.139997,1.160004 0.179998,1.74 -9.919999,0.740005 -17.779997,8.940007 -17.779997,19.060002 0,10.600009 8.600001,19.200009 19.199996,19.200009 H 108.8 c 10.6,0 19.2,-8.6 19.2,-19.200009 0,-8.419996 -5.44,-15.479994 -12.96001,-18.079994 z M 28.959999,73.758003 c -8.74,-8.740001 -8.74,-22.94 0,-31.659998 8.740004,-8.740001 22.940005,-8.740001 31.680002,0 1.940003,1.939998 3.379998,4.18 4.460003,6.539997 1.959995,-0.74 4.019997,-1.200001 6.139995,-1.5 L 77.2,29.358002 c 0.800001,-2.380001 -1.459998,-4.619999 -3.839997,-3.840003 L 55.799999,31.378002 47.5,14.818004 c -1.100002,-2.240001 -4.300001,-2.240001 -5.420002,0 L 33.799997,31.378002 16.22,25.517999 c -2.36,-0.779996 -4.620001,1.480006 -3.840001,3.840003 l 5.860002,17.56 -16.5600022,8.300001 c -2.2399984,1.120001 -2.2399984,4.3 0,5.419997 l 16.5600022,8.280003 -5.860002,17.560001 c -0.800001,2.380001 1.46,4.620001 3.840001,3.840001 l 15.220001,-5.060003 c 1.220001,-2.479999 2.799997,-4.739999 4.720003,-6.699997 -2.620007,-1.079999 -5.080003,-2.679999 -7.200005,-4.800002 z M 28.000002,57.918 c 0,8.160004 5.86,14.960003 13.579996,16.460003 1.600005,-0.939998 3.260001,-1.760004 5.040006,-2.339998 C 47.700002,63.178001 52.820001,55.538004 60.100002,51.038002 57.459999,45.217999 51.600001,41.138006 44.8,41.138006 c -9.26,0 -16.799998,7.519996 -16.799998,16.779994 z"
     id="path2"
     style="fill:#848e98;fill-opacity:1;stroke-width:0.200001" />
</svg>
